<?xml version="1.0" encoding="UTF-8"?>
<svg id="Layer_1" data-name="Layer 1" xmlns="http://www.w3.org/2000/svg" viewBox="0 0 507.09 699.29">
  <defs>
    <style>
      .cls-1 {
        fill: none;
        stroke: #231f20;
        stroke-miterlimit: 10;
        stroke-width: 4px;
      }
    </style>
  </defs>
  <path class="cls-1" d="m293.99,221.24c-17.19,28.5-35.62,45.54-49.33,55.84-10.41,7.83-13.42,8.26-44.67,29.78-26.12,17.99-33.67,24.34-40.95,34.44-4.67,6.48-8.7,15.18-16.75,32.58-6.09,13.15-10.95,23.65-15.82,38.16-2.06,6.13-7.47,22.96-11.17,45.61-2.53,15.53-4.58,35.79-3.72,59.57"/>
  <path class="cls-1" d="m98.54,170.05c3.47,5.33,4.43,9.85,4.65,13.03.65,9.28-4.47,14.37-11.17,30.71-1.8,4.39-3.06,8.2-5.58,15.82-4.02,12.15-5.46,19.28-9.31,34.44-4.17,16.41-3.89,13.88-7.45,27.92-5.34,21.11-8.33,32.93-10.24,47.47-.96,7.33-1.68,15.53-1.86,36.3-.16,17.92.09,42.56,1.86,72.6"/>
  <path class="cls-1" d="m72.48,153.3c15.76-10.87,29.56-16.95,39.09-20.48,19.78-7.32,27.5-5.94,45.61-14.89,8.68-4.29,15.72-9.38,29.78-19.55,24.14-17.45,24.36-20.84,38.16-28.85,13.19-7.66,24.01-10.95,40.02-15.82,23.18-7.06,41.74-9.41,49.33-10.24,19.54-2.13,32.66-3.56,50.26,0,10.52,2.13,24.31,4.91,38.16,14.89,10.17,7.33,10.13,11.16,21.41,17.68,6.03,3.49,16.14,9.34,29.78,10.24,12.8.85,20.11-3.23,23.27.93,2.82,3.71-.29,10.51-1.86,13.96-4.68,10.26-12.82,15.94-16.75,18.61-9.61,6.53-23.84,15.49-42.81,25.13"/>
  <path class="cls-1" d="m367.52,164.47c10.61,11.4,14.9,22.6,16.75,28.85,3.11,10.5,2.95,19.24,2.79,27.92-.13,6.91-.37,16.61-3.72,27.92-5.24,17.68-16.52,33.99-20.48,32.58-2.98-1.07,1.4-11.05-2.79-25.13-3.24-10.89-9.66-17.68-15.82-24.2-12.69-13.43-27.12-20.92-38.16-25.13"/>
  <path class="cls-1" d="m267,198.9c-4.67,17.92-12.1,29.89-17.68,37.23-6.98,9.17-7.34,6.2-25.13,25.13-10.99,11.69-15.25,17.51-25.13,22.34-8.59,4.2-18.9,6.42-20.48,3.72-1.64-2.8,8.23-7.39,12.1-19.55,2.27-7.14,1.45-13.65,0-25.13-1.35-10.67-3.25-13.93-1.86-20.48,1.35-6.34,4.78-11.02,7.45-13.96"/>
  <path class="cls-1" d="m69.69,522.8c-7.01,16.29-13.76,28.82-18.61,37.23-6.67,11.57-10.14,16.02-13.96,26.06-2.21,5.81-6.44,17.22-6.52,31.64-.11,20.37,8.09,39.58,12.1,39.09,3.42-.42-.41-14.68,9.31-28.85,7.24-10.55,18.45-15.88,24.2-18.61,14.1-6.7,18.08-3.36,23.27-8.38,13.74-13.27-.94-49.45,1.86-50.26,2.15-.62,5.34,22.13,21.41,29.78,4.48,2.13,5.36.9,23.27,3.72,2.23.35,13.57,2.16,24.2,4.65,24.81,5.82,33.63,12.5,36.3,9.31,3.9-4.68-11.46-23.24-13.03-25.13-9.98-12.06-20.6-19.12-29.78-25.13-9.35-6.12-17.99-10.65-25.13-13.96"/>
</svg>