<?xml version="1.0" encoding="utf-8"?>
<!-- Generator: Adobe Illustrator 28.0.0, SVG Export Plug-In . SVG Version: 6.00 Build 0)  -->
<svg version="1.1" id="Layer_1" xmlns="http://www.w3.org/2000/svg" xmlns:xlink="http://www.w3.org/1999/xlink" x="0px" y="0px"
	 viewBox="0 0 507.1 699.3" style="enable-background:new 0 0 507.1 699.3;" xml:space="preserve">
<style type="text/css">
	.st0{fill:none;stroke:#FFFFFF;stroke-width:4;stroke-miterlimit:10;}
</style>
<path class="st0" d="M294,221.2c-17.2,28.5-35.6,45.5-49.3,55.8c-10.4,7.8-13.4,8.3-44.7,29.8c-26.1,18-33.7,24.3-40.9,34.4
	c-4.7,6.5-8.7,15.2-16.8,32.6c-6.1,13.1-10.9,23.6-15.8,38.2c-2.1,6.1-7.5,23-11.2,45.6c-2.5,15.5-4.6,35.8-3.7,59.6"/>
<path class="st0" d="M98.5,170.1c3.5,5.3,4.4,9.9,4.7,13c0.7,9.3-4.5,14.4-11.2,30.7c-1.8,4.4-3.1,8.2-5.6,15.8
	c-4,12.1-5.5,19.3-9.3,34.4c-4.2,16.4-3.9,13.9-7.4,27.9c-5.3,21.1-8.3,32.9-10.2,47.5c-1,7.3-1.7,15.5-1.9,36.3
	c-0.2,17.9,0.1,42.6,1.9,72.6"/>
<path class="st0" d="M72.5,153.3c15.8-10.9,29.6-16.9,39.1-20.5c19.8-7.3,27.5-5.9,45.6-14.9c8.7-4.3,15.7-9.4,29.8-19.6
	c24.1-17.4,24.4-20.8,38.2-28.8c13.2-7.7,24-11,40-15.8c23.2-7.1,41.7-9.4,49.3-10.2c19.5-2.1,32.7-3.6,50.3,0
	c10.5,2.1,24.3,4.9,38.2,14.9c10.2,7.3,10.1,11.2,21.4,17.7c6,3.5,16.1,9.3,29.8,10.2c12.8,0.8,20.1-3.2,23.3,0.9
	c2.8,3.7-0.3,10.5-1.9,14c-4.7,10.3-12.8,15.9-16.8,18.6c-9.6,6.5-23.8,15.5-42.8,25.1"/>
<path class="st0" d="M367.5,164.5c10.6,11.4,14.9,22.6,16.8,28.9c3.1,10.5,3,19.2,2.8,27.9c-0.1,6.9-0.4,16.6-3.7,27.9
	c-5.2,17.7-16.5,34-20.5,32.6c-3-1.1,1.4-11-2.8-25.1c-3.2-10.9-9.7-17.7-15.8-24.2c-12.7-13.4-27.1-20.9-38.2-25.1"/>
<path class="st0" d="M267,198.9c-4.7,17.9-12.1,29.9-17.7,37.2c-7,9.2-7.3,6.2-25.1,25.1c-11,11.7-15.2,17.5-25.1,22.3
	c-8.6,4.2-18.9,6.4-20.5,3.7c-1.6-2.8,8.2-7.4,12.1-19.5c2.3-7.1,1.4-13.6,0-25.1c-1.4-10.7-3.2-13.9-1.9-20.5
	c1.4-6.3,4.8-11,7.4-14"/>
<path class="st0" d="M69.7,522.8c-7,16.3-13.8,28.8-18.6,37.2c-6.7,11.6-10.1,16-14,26.1c-2.2,5.8-6.4,17.2-6.5,31.6
	c-0.1,20.4,8.1,39.6,12.1,39.1c3.4-0.4-0.4-14.7,9.3-28.8c7.2-10.5,18.5-15.9,24.2-18.6c14.1-6.7,18.1-3.4,23.3-8.4
	c13.7-13.3-0.9-49.5,1.9-50.3c2.2-0.6,5.3,22.1,21.4,29.8c4.5,2.1,5.4,0.9,23.3,3.7c2.2,0.3,13.6,2.2,24.2,4.7
	c24.8,5.8,33.6,12.5,36.3,9.3c3.9-4.7-11.5-23.2-13-25.1c-10-12.1-20.6-19.1-29.8-25.1c-9.4-6.1-18-10.7-25.1-14"/>
</svg>
